<svg xmlns="http://www.w3.org/2000/svg" viewBox="0 0 1220 460" role="img" aria-label="按能力门槛建设：代码交付与量化研究两条轨道"><defs><marker id="arrow" viewBox="0 0 10 10" refX="9" refY="5" markerWidth="7" markerHeight="7" orient="auto-start-reverse"><path d="M0 0L10 5L0 10Z" fill="#60748c"/></marker></defs><rect width="100%" height="100%" rx="18" fill="#f6f9fc"/><style>text{font-family:"Microsoft YaHei","Noto Sans CJK SC",sans-serif;fill:#173652}</style><text x="32" y="52" font-size="28" font-weight="700">按能力门槛建设：代码交付与量化研究两条轨道</text><path d="M285 160L320 160" stroke="#60748c" stroke-width="2.5" fill="none" marker-end="url(#arrow)"/><path d="M585 160L620 160" stroke="#60748c" stroke-width="2.5" fill="none" marker-end="url(#arrow)"/><path d="M885 160L920 160" stroke="#60748c" stroke-width="2.5" fill="none" marker-end="url(#arrow)"/><path d="M1055 225L1055 280" stroke="#60748c" stroke-width="2.5" fill="none" marker-end="url(#arrow)"/><path d="M925 350L890 350" stroke="#60748c" stroke-width="2.5" fill="none" marker-end="url(#arrow)"/><path d="M625 350L590 350" stroke="#60748c" stroke-width="2.5" fill="none" marker-end="url(#arrow)"/><path d="M325 350L290 350" stroke="#60748c" stroke-width="2.5" fill="none" marker-end="url(#arrow)"/><rect x="25" y="95" width="260" height="130" rx="14" fill="#e2f2eb" stroke="#aec2d7"/><text data-box="25,95,260,130" x="43" y="128" font-size="21" font-weight="700">R 版本交付底座</text><text data-box="25,95,260,130" x="43" y="160" font-size="18">真实源码、依赖、CI</text><text data-box="25,95,260,130" x="43" y="187" font-size="18">文档、提交与发布清单</text><rect x="325" y="95" width="260" height="130" rx="14" fill="#e7efff" stroke="#aec2d7"/><text data-box="325,95,260,130" x="343" y="128" font-size="21" font-weight="700">P0 故障与合同</text><text data-box="325,95,260,130" x="343" y="160" font-size="18">已排队日历修复</text><text data-box="325,95,260,130" x="343" y="187" font-size="18">时点、标签、错误规则</text><rect x="625" y="95" width="260" height="130" rx="14" fill="#e7efff" stroke="#aec2d7"/><text data-box="625,95,260,130" x="643" y="128" font-size="21" font-weight="700">P1 多信息接口</text><text data-box="625,95,260,130" x="643" y="160" font-size="18">事件快照、面板</text><text data-box="625,95,260,130" x="643" y="187" font-size="18">板型、席位、财务环境</text><rect x="925" y="95" width="260" height="130" rx="14" fill="#e7efff" stroke="#aec2d7"/><text data-box="925,95,260,130" x="943" y="128" font-size="21" font-weight="700">P2 DSL与批次</text><text data-box="925,95,260,130" x="943" y="160" font-size="18">类型、算子、缓存</text><text data-box="925,95,260,130" x="943" y="187" font-size="18">冻结、尝试账本、恢复</text><rect x="925" y="285" width="260" height="130" rx="14" fill="#fff0dc" stroke="#aec2d7"/><text data-box="925,285,260,130" x="943" y="318" font-size="21" font-weight="700">P3 数值筛选</text><text data-box="925,285,260,130" x="943" y="350" font-size="18">小批次测内存与耗时</text><text data-box="925,285,260,130" x="943" y="377" font-size="18">逐步放大候选规模</text><rect x="625" y="285" width="260" height="130" rx="14" fill="#fff0dc" stroke="#aec2d7"/><text data-box="625,285,260,130" x="643" y="318" font-size="21" font-weight="700">P4 模型与账户</text><text data-box="625,285,260,130" x="643" y="350" font-size="18">首条闭环→多模型比较</text><text data-box="625,285,260,130" x="643" y="377" font-size="18">双费用、对照、独立核查</text><rect x="325" y="285" width="260" height="130" rx="14" fill="#e7efff" stroke="#aec2d7"/><text data-box="325,285,260,130" x="343" y="318" font-size="21" font-weight="700">P5 高级模型与生成</text><text data-box="325,285,260,130" x="343" y="350" font-size="18">序列、关系图、GP</text><text data-box="325,285,260,130" x="343" y="377" font-size="18">再评估RL与LLM搜索</text><rect x="25" y="285" width="260" height="130" rx="14" fill="#e2f2eb" stroke="#aec2d7"/><text data-box="25,285,260,130" x="43" y="318" font-size="21" font-weight="700">P6 持续研究</text><text data-box="25,285,260,130" x="43" y="350" font-size="18">主题覆盖、交接、影子</text><text data-box="25,285,260,130" x="43" y="377" font-size="18">状态从第一包开始记录</text></svg>